<?xml version="1.0" encoding="utf-8"?>
<!-- Generator: Adobe Illustrator 26.4.1, SVG Export Plug-In . SVG Version: 6.00 Build 0)  -->
<svg version="1.1" id="Layer_1" xmlns="http://www.w3.org/2000/svg" xmlns:xlink="http://www.w3.org/1999/xlink" x="0px" y="0px"
	 viewBox="0 0 837.647 697.647" style="enable-background:new 0 0 837.647 697.647;" xml:space="preserve">
<style type="text/css">
	.st0{fill:#A39798;}
	.st1{fill:#D4AF08;}
	.st2{fill:#49A7DE;}
	.st3{fill:#3AAD59;}
	.st4{fill:#010202;}
</style>
<g>
	<path class="st0" d="M343.05,458.236l-1.219-3.4C333.706,439.113,343.05,458.236,343.05,458.236"/>
	<path class="st1" d="M476.159,369.858c-4.111-9.003-9.917-18.631-17.912-28.792c0,0-8.324-22.564-17.522-2.161
		c0,0-2.685,16.965-5.204,21.995c0,0-3.595,7.191,4.002,14.39c0,0,22.82,10.356,18.806,40.001c0,0-2.807,39.59-48.772,40.793
		c0,0-48.016,1.199-50.023-36.791c0,0-3.49-28.142,16.608-39.2c0,0,13.143-4.989,9.389-18.802c0,0-4.786-10.169-6.797-19.708
		c0,0-5.013-26.651-13.5-9.06c0,0-4.969,10.551-9.494,16.584c0,0-41.703,64.311-9.047,106.018c0,0,16.007,20.419,50.811,24.827
		c3.88,0.5,7.975,0.796,12.326,0.837c0,0,3.685,0.244,9.503-0.52c12.732-1.678,35.731-8.211,52.977-32.692
		c0,0,13.39-15.808,12.566-42.56l-1.406-10.193L476.159,369.858z M350.742,440.093c0,0-16.531-23.198,3.494-61.76
		c0,0,9.052-18.643,9.584-24.51c0,0,0.605-9.685,4.335-9.685c0,0,2.304,16.21,4.965,16.75c0,0,2.807,5.346-5.18,11.209
		c0,0-37.766,37.141-12.107,67.496C355.832,439.593,360.236,455.275,350.742,440.093 M435.358,466.727
		c-11.619,4.501-1.077-4.505-1.077-4.505c66.599-40.61,23.421-86.798,23.421-86.798c-10.604-5.513-10.043-10.217-10.043-10.217
		c2.901-6.118,3.372-15.544,3.372-15.544c2.113-6.106,7.292,10.957,7.292,10.957c10.169,20.711,13.561,24.591,15.491,33.72
		C484.78,446.276,435.358,466.727,435.358,466.727"/>
	<path class="st1" d="M362.167,302.058c0,0-14.682-10.437-18.196-15.243c0,0-5.034-6.898-15.507-2.559
		c0,0-20.829,18.168-46.81,0.609c0,0-35.934-20.878-14.739-67.533c0,0,22.198-48.715,58.965-33.391c0,0,28.207,9.344,28.857,34.549
		c0,0-1.694,15.45,13.151,17.993c0,0,11.899-0.163,21.873,2.174c0,0,27.536,7.118,15.093-9.405c0,0-7.524-9.799-11.01-17.091
		c0,0-40.33-71.181-95.48-57.441c0,0-33.362,8.296-54.866,51.612c0,0-10.916,19.444-8.438,46.111
		c0.171,1.816,0.386,3.673,0.691,5.558c1.333,8.259,4.01,17.087,8.686,26.155c0,0,6.594,16.165,25.85,27.764
		c1.085,0.654,2.21,1.296,3.372,1.909c1.601,0.869,3.303,1.674,5.066,2.45c0.748,0.325,1.479,0.65,2.251,0.971
		c0.057,0.02,0.126,0.041,0.183,0.061c16.32,6.516,39.139,9.23,70.466,1.333C351.625,318.642,376.914,320.604,362.167,302.058
		 M310.568,165.632c0,0,29.872-6.005,56.474,31.684c0,0,13.167,17.587,18.424,20.792c0,0,8.832,5.03,7.024,8.767
		c0,0-16.393-5.082-18.184-2.661c0,0-6.407,0.374-8.044-10.307c0,0-16.649-54.833-57.705-42.942
		C308.557,170.966,291.632,168.232,310.568,165.632 M333.164,309.81c-24.465,0.748-29.771,2.385-39.302,0.154
		c-54.248-12.708-49.511-71.604-49.511-71.604c1.41-13.703,4.77,0.975,4.77,0.975c5.895,85.339,70.397,63.088,70.397,63.088
		c10.343-8.113,14.495-5.403,14.495-5.403c4.359,5.704,13.004,10.473,13.004,10.473C351.746,312.394,333.164,309.81,333.164,309.81"
		/>
	<path class="st1" d="M580.845,204.285c-13.431-27.073-31.51-40.464-43.173-46.708c-7-3.734-11.692-4.904-11.692-4.904
		c-1.495-0.374-2.982-0.658-4.465-0.914c-52.851-8.974-91.007,58.351-91.007,58.351c-3.494,7.292-11.014,17.096-11.014,17.096
		c-12.448,16.535,15.089,9.413,15.089,9.413c9.978-2.348,21.881-2.182,21.881-2.182c14.837-2.539,13.151-17.989,13.151-17.989
		c0.65-25.209,28.849-34.549,28.849-34.549c36.767-15.332,58.965,33.387,58.965,33.387c21.203,46.663-14.731,67.537-14.731,67.537
		c-25.984,17.55-46.814-0.618-46.814-0.618c-10.477-4.339-15.515,2.568-15.515,2.568c-3.506,4.81-18.192,15.247-18.192,15.247
		c-14.743,18.534,10.551,16.588,10.551,16.588c36.096,9.084,60.891,4.107,77.474-4.566c22.247-11.635,29.71-29.925,29.71-29.925
		c7.569-14.674,9.888-28.682,9.746-40.695C589.381,219.487,580.845,204.285,580.845,204.285 M515.795,168.919
		c-41.061-11.895-57.705,42.942-57.705,42.942c-1.641,10.689-8.044,10.315-8.044,10.315c-1.792-2.425-18.184,2.649-18.184,2.649
		c-1.808-3.734,7.02-8.759,7.02-8.759c5.261-3.21,18.428-20.797,18.428-20.797c26.594-37.681,56.475-31.684,56.475-31.684
		C532.707,166.177,515.795,168.919,515.795,168.919 M530.481,307.918c-9.531,2.235-14.833,0.589-39.294-0.158
		c0,0-18.59,2.592-13.858-2.308c0,0,8.641-4.778,13.004-10.477c0,0,4.16-2.71,14.504,5.411c0,0,64.494,22.231,70.393-63.092
		c0,0,3.352-14.678,4.761-0.983C579.992,236.31,584.733,295.222,530.481,307.918"/>
	<path class="st2" d="M421.21,449.682c-4.071-38.79-2.649-132.356-2.649-132.356c0.154-8.471,34.094-40.817,34.094-40.817
		c10.425-1.658,32.257-16.06,32.257-16.06c8.527-8.06,38.619-26.529,52.213-34.723c-0.512-0.557-0.886-0.902-0.886-0.902
		c-4.554-5.208-8.235-8.255-11.05-10.043C507.211,229.919,461.6,263.22,461.6,263.22l-19.362,6.533l-22.576,22.259
		c-8.15,6.655-11.578,2.974-11.578,2.974c-19.838-22.255-42.836-32.318-42.836-32.318c-14.191-4.729-56.617-39.952-68.735-50.165
		c-3.961,4.367-8.239,12.322-8.239,12.322c-2.096,0.447-3.689,1.089-4.944,1.82c11.786,5.797,39.468,21.832,39.468,21.832
		c17.916,20.703,36.161,28.032,36.161,28.032c21.333,5.086,40.728,36.645,40.728,36.645c0.11,0.382,0.227,0.849,0.325,1.385
		c0.016,0.057,0.024,0.126,0.037,0.187c0.081,0.443,0.163,0.943,0.24,1.479c0.041,0.28,0.081,0.597,0.122,0.922
		c0.037,0.305,0.073,0.618,0.106,0.951c2.58,23.364,0.358,105.055-0.479,132.234c-0.008,0.394-0.024,0.788-0.029,1.17
		c3.234,0.683,5.932,1.044,7.707,1.239c1.662,0.065,3.295,0.02,4.835-0.089c2.397-0.284,4.656-0.654,6.789-1.109
		c0.821-0.24,1.511-0.475,1.995-0.711C421.295,450.438,421.254,450.064,421.21,449.682"/>
	<path class="st2" d="M400.007,451.482c2.454,0.768,5.111,1.129,7.711,1.227C405.934,452.514,403.24,452.165,400.007,451.482"/>
	<path class="st2" d="M419.337,451.522c-2.129,0.455-4.392,0.825-6.793,1.109C415.234,452.432,417.603,451.998,419.337,451.522"/>
	<path class="st2" d="M400.408,317.125c0.036,0.301,0.073,0.626,0.114,0.955C400.485,317.743,400.445,317.426,400.408,317.125"/>
	<path class="st2" d="M400.051,314.724c0.077,0.443,0.162,0.943,0.236,1.479C400.214,315.663,400.128,315.167,400.051,314.724"/>
	<path class="st2" d="M399.684,313.153c0.11,0.382,0.223,0.853,0.329,1.385C399.908,313.998,399.794,313.535,399.684,313.153"/>
	<path class="st2" d="M400.007,451.482c0.004-0.386,0.02-0.776,0.028-1.17C400.027,450.694,400.01,451.121,400.007,451.482"/>
	<path class="st2" d="M421.329,450.81c-0.041-0.374-0.085-0.756-0.114-1.129C421.244,450.063,421.289,450.437,421.329,450.81"/>
	<path class="st3" d="M275.639,510.412c19.708-4.262,19.708-14.061,19.708-14.061c3.648-15.271-23.433-10.855-23.433-10.855
		c-27.167,6.508-21.304,21.719-21.304,21.719C253.806,516.811,275.639,510.412,275.639,510.412"/>
	<path class="st3" d="M541.133,510.412c0,0,21.837,6.399,25.038-3.197c0,0,5.858-15.21-21.308-21.719
		c0,0-27.086-4.416-23.433,10.855C521.43,496.352,521.43,506.151,541.133,510.412"/>
	<path class="st3" d="M334.205,485.496c0,0,13.756-10.043,3.616-29.584c0,0-37.461-88.342-41.808-111.775
		c0,0-0.581-15.881-10.303-15.572c0,0-13.845-0.784-5.842,25.282l10.908,58.624l-46.529-45.424c0,0-11.993-10.896-9.153-22.909
		l-1.255-72.335c-0.544-1.719-1.04-3.421-1.462-5.107c-3.035-9.957-10.087-29.365-13.988-9.848v104.227
		c0,0-2.169,19.553,7.963,28.235l69.662,88.614C296.012,477.924,314.907,503.209,334.205,485.496"/>
	<path class="st3" d="M247.104,357.391l20.057,22.678c0,0,10.77,4.741,7.719-7.686c0,0-5.602-11.481-3.713-21.361
		c0,0,0.662-1.304-2.828-3.92l-12.111-8.198c0,0-2.429-2.958-1.995-5.139c0,0-1.044-5.806-3.23-7.244c0,0-3.266-2.043-2.941-14.3
		c0,0-0.487-13.78-3.815-12.651c0,0-4.855-2.836-3.847,7.812C240.4,307.38,242.878,349.599,247.104,357.391"/>
	<path class="st3" d="M268.557,332.706c0,0,4.136-3.384-1.528-9.218c0,0-3.49-12.797-10.246-9.088c0,0-4.209,5.708,1.052,12.119
		C257.836,326.518,262.662,337.069,268.557,332.706"/>
	<path class="st3" d="M551.546,380.744l20.476-22.296c4.367-7.719,7.65-49.881,7.65-49.881c1.194-10.632-3.713-7.886-3.713-7.886
		c-3.303-1.194-4.046,12.578-4.046,12.578c0.102,12.265-3.218,14.24-3.218,14.24c-2.206,1.397-3.36,7.191-3.36,7.191
		c0.39,2.186-2.092,5.103-2.092,5.103l-12.253,7.959c-3.539,2.555-2.917,3.868-2.917,3.868c1.714,9.905-4.103,21.292-4.103,21.292
		C540.69,385.286,551.546,380.744,551.546,380.744"/>
	<path class="st3" d="M551.034,333.369c5.81,4.469,10.827-5.996,10.827-5.996c5.383-6.305,1.284-12.098,1.284-12.098
		c-6.683-3.835-10.408,8.905-10.408,8.905C546.955,329.892,551.034,333.369,551.034,333.369"/>
	<path class="st3" d="M602.611,258.452c-0.142-0.768-0.28-1.458-0.431-2.108c-0.049-0.219-0.106-0.398-0.15-0.597
		c-0.11-0.41-0.207-0.817-0.313-1.174c-0.065-0.215-0.13-0.402-0.199-0.601c-0.098-0.297-0.199-0.601-0.288-0.857
		c-0.077-0.187-0.158-0.353-0.223-0.516c-0.106-0.228-0.199-0.447-0.309-0.634c-0.069-0.154-0.158-0.289-0.236-0.423
		c-0.102-0.158-0.199-0.309-0.301-0.447c-0.085-0.114-0.175-0.215-0.264-0.309c-0.093-0.106-0.199-0.195-0.292-0.292
		c-0.102-0.069-0.195-0.142-0.288-0.199c-0.093-0.057-0.187-0.097-0.288-0.138c-0.102-0.037-0.199-0.085-0.305-0.102
		c-0.094-0.016-0.179-0.016-0.276-0.016c-0.11-0.008-0.219-0.008-0.333,0.012c-0.081,0.008-0.171,0.045-0.252,0.069
		c-0.118,0.037-0.244,0.069-0.366,0.126c-0.065,0.032-0.126,0.073-0.191,0.114c-1.133,0.658-2.307,2.238-3.433,4.282
		c-2.328,4.213-4.469,10.368-5.761,14.398c0,0.008,0,0.02,0,0.028c-0.122,0.382-0.24,0.756-0.345,1.097
		c0,0.02-0.016,0.028-0.02,0.045c-0.11,0.353-0.199,0.666-0.288,0.963c0,0.004-0.008,0.012-0.008,0.012
		c-0.085,0.297-0.162,0.557-0.227,0.788c0,0.012-0.008,0.016-0.012,0.029c-0.207,0.707-0.321,1.117-0.321,1.117l-0.248,6.846
		l-2.352,65.457c2.6,12.066-9.596,22.722-9.596,22.722l-47.354,44.563l11.985-58.429c8.491-25.899-5.355-25.375-5.355-25.375
		c-9.726-0.492-10.607,15.381-10.607,15.381c-4.778,23.352-43.88,110.962-43.88,110.962c-10.498,19.35,3.059,29.665,3.059,29.665
		c0.638,0.585,1.268,1.15,1.905,1.658c6.46,5.196,12.887,5.676,18.501,4.124c10.327-2.889,17.92-12.651,17.92-12.651l71.303-87.294
		c10.299-8.495,8.491-28.089,8.491-28.089L602.611,258.452z"/>
	<path class="st3" d="M411.272,162.19c0.162-3.01,2.941-10.603,2.941-10.603c2.771-5.862,1.337-8.077,1.337-8.077
		c-1.263-0.471-10.449-8.239-10.449-8.239c-5.07-5.07-9.027,0-9.027,0c-2.645,1.913-3.344,6.334-3.344,6.334v14.256
		c-0.167,4.428,3.344,4.31,3.344,4.31l4.465,3.063C406.271,168.393,411.272,162.19,411.272,162.19"/>
	<path class="st3" d="M404.325,173.115l-5.403,0.638c0,0-0.154,9.177-2.848,9.653h-2.848c0,0-0.674,2.698-0.496,4.12
		c0,0-1.251,2.214,5.241,2.052c0,0,5.737,1.272,6.354-1.418c0,0,2.673,0,2.356-5.545l0.028-6.329
		C406.709,176.284,407.189,172.952,404.325,173.115"/>
	<path class="st3" d="M411.272,184.197h2.937c2.612-0.162,2.921-2.056,2.921-2.056c2.535,0.154,2.535-3.169,2.535-3.169v-5.225
		c0-3.799-2.535-3.165-2.535-3.165h-2.921c-2.921,0-2.937,2.523-2.937,2.523c-2.218,0-2.377,1.914-2.377,1.914v6.476
		C409.053,184.49,411.272,184.197,411.272,184.197"/>
	<path class="st3" d="M433.755,181.496l-1.268-1.097c0,0,0.471-1.105,0.321-1.901c-0.163-0.792-1.194-3.323-1.194-3.323v-2.068
		h-1.182c0,0-0.475-3.392-3.165-2.568c0,0-4.749,0.825-1.43,2.568l-1.105,9.51l-1.113-1.121l-1.259,1.121v0.947v2.694v2.056
		l1.739,0.955h1.739l2.698,0.609h3.953l2.852-2.035c0,0,0.317-3.778,0-3.636c-0.313,0.158,0.142-2.71,0.142-2.71H433.755z"/>
	<path class="st3" d="M459.885,156.649h4.745c2.222-0.788,1.747-4.432,1.267-4.753c-0.467-0.309-1.739-2.06-2.214-3.433
		c-0.479-1.381-1.739-1.312-2.218-1.471c-0.475-0.167-3.165,0-3.165,0l-1.585,3.01h-1.743l-3.64-0.849l-1.743,0.849l-0.987,0.91
		l0.362,2.035c0,0-0.483,1.483-0.638,1.958c-0.158,0.475,0.792,1.905,1.263,2.531c0.475,0.638-0.154,1.589,0,2.064
		c0.158,0.471,1.097,0.67,2.69,0.67h1.905l2.689-1.146l-0.317-1.739l1.385-0.638H459.885z"/>
	<path class="st3" d="M473.592,94.682c-4.132,0.341-3.096,5.688-3.096,5.688c0.167,9.129,11.193,29.117,11.193,29.117
		c6.208,10.51,11.371,6.374,11.371,6.374c2.588-1.377,1.211-6.374,1.211-6.374c-7.585-9.994-13.094-27.736-13.094-27.736
		C478.759,93.999,473.592,94.682,473.592,94.682"/>
	<path class="st3" d="M485.652,94.673c-5.168,3.6,1.552,13.025,1.552,13.025c1.381,14.39,21.711,28.962,21.711,28.962
		c5.509,6.317,8.438,4.363,8.438,4.363c3.27-1.548-1.897-8.089-1.897-8.089c-6.541-6.898-20.825-33.257-20.825-33.257
		C492.587,90.895,485.652,94.673,485.652,94.673"/>
	<path class="st3" d="M308.345,140.837c4.022,0.548,8.032-5.814,8.032-5.814c2.214-6.785,23.949-41.67,23.949-41.67
		c4.152-6.516,6.923-3.185,6.923-3.185c2.633,7.479-9.966,24.225-9.966,24.225c-13.431,12.464-5.956,16.896-5.956,16.896
		c2.909,5.257,14.536-15.779,14.536-15.779c3.738-3.055,9.413-23.961,9.413-23.961c2.498-4.566,5.676-0.272,5.676-0.272
		c2.495,6.37,0.142,8.028,0.142,8.028c-4.701,1.8-2.356,10.522-2.356,10.522c-3.043,0.971-3.185,5.123-3.185,5.123
		c-1.101,0.825-3.181,5.537-3.181,5.537c-2.629,4.985,0,7.479,0,7.479c1.796,1.385,3.047-0.28,3.047-0.28l5.81-8.308
		c0.695-2.909,1.658-2.08,1.658-2.08c-0.41,3.189,3.197,2.767,3.197,2.767c0,3.051,1.519,2.767,1.519,2.767
		c0.967,0,2.214-2.344,2.214-2.344c1.792,0.28,2.214-2.072,2.214-2.072c1.52-0.146,2.352-2.905,2.352-2.905l0.276-7.816
		c1.105-6.703,2.629,0,2.629,0l0.553,6.561c-0.41,3.457,2.913,3.043,2.913,3.043c1.938,0.276,3.185-2.348,3.185-2.348
		c1.243-0.134,0.829-2.494,0.829-2.494l-0.134-6.923c0.134-1.934-0.557-3.039-0.557-3.039c-1.385-4.57-7.617-11.083-7.617-11.083
		c-2.771-2.348-4.29-0.276-4.29-0.276c-2.767,3.185-2.495,0-2.495,0c-1.381-11.213-8.304-11.627-8.304-11.627
		c-6.094,0.553-4.432-2.076-4.432-2.076l3.742-2.352c2.767-3.327,6.78,1.113,6.78,1.113c1.247,8.158,15.787,5.529,15.787,5.529
		c6.224,3.599,5.533,18.964,5.533,18.964c-1.381,18.558,18.14,28.247,18.14,28.247l17.437,9.685l0.098,2.693
		c-3.047-0.414-2.174,7.138-2.174,7.138l-0.134,3.88c0.134,3.457,2.352,5.403,2.352,5.403c0.272,3.319,2.629,2.295,2.629,2.295
		l6.789-0.215c4.148,0.959,4.839-1.527,4.839-1.527c-0.41-2.08,0.833-2.218,0.833-2.218c1.666,0.138,2.214-3.738,2.214-3.738
		l-1.239-14.678c-2.36-4.152-5.541,0.142-5.541,0.142c-1.377,2.076-2.214-0.833-2.214-0.833c-0.28-3.327-5.68-12.87-5.68-12.87
		c-1.381-3.051,1.662-3.604,1.662-3.604c4.152,4.014,7.475,2.214,7.475,2.214c4.156,1.105,1.938-13.021,1.938-13.021
		c0.422-2.068,2.494-0.544,2.494-0.544c0,3.6,3.323,3.465,3.323,3.465c1.523,0.268,2.633-4.018,2.633-4.018
		c2.495-1.942,2.214,2.072,2.214,2.072c-0.142,5.261,3.88,5.952,3.88,5.952c2.905,0.276,3.591-3.872,3.591-3.872
		c-0.829-4.566,1.109-6.374,1.109-6.374c2.08,0.28,3.88,3.88,6.366,13.017c2.495,9.133,7.061,8.166,7.061,8.166
		c3.465-0.138,1.942-5.814,1.942-5.814l-6.923-21.455c-0.691-5.818-4.704-4.57-4.704-4.57h-6.923c-6.508,0-7.479,2.356-7.479,2.356
		c-13.427,4.01-22.43-8.999-22.43-8.999c-3.181-3.742-0.552-8.308-0.552-8.308c1.528-2.909,4.436,0.825,4.436,0.825
		c4.847,10.66,15.637,11.493,15.637,11.493c13.85-0.553,16.202-12.874,16.202-12.874c-0.138-4.981,2.356-4.839,2.356-4.839
		c3.733,0.833,3.039,11.623,3.039,11.623c3.189,6.781,13.849,0.695,13.849,0.695c-0.423-8.588,6.232-4.57,6.232-4.57
		c6.086,9.275,9.828,5.399,9.828,5.399c2.072-3.323-5.403-9.417-5.403-9.417c-3.189-2.897,0-5.123,0-5.123l3.88-3.88
		c-3.461-4.977-20.63-14.808-20.63-14.808c-9.133-4.57-10.932,3.461-10.932,3.461l-0.699-1.796c-3.039-7.89,3.604-9.97,3.604-9.97
		c8.308-1.247,23.535,11.351,23.535,11.351c-1.109-2.356,2.629-4.294,2.629-4.294c-3.872-5.537-17.587-15.223-17.587-15.223
		c-4.282-3.327-13.699-2.637-13.699-2.637c-12.322,0.28-10.526,16.214-10.526,16.214c0.699,3.197,1.251,13.971,1.251,13.971
		c0,12.598-6.09,13.565-6.09,13.565c-7.617,2.076-12.46-7.195-12.46-7.195c-4.981-7.061-4.981-28.934-4.981-28.934
		c2.21-9.417-4.022-13.5-4.022-13.5c-4.981-5.887-9.275-5.749-9.275-5.749c-4.566-0.134-7.057,2.36-7.057,2.36
		c-1.385,0.963-7.199,4.981-7.199,4.981c-3.461,0.691-4.575,4.152-4.575,4.152c0.142,1.934,4.575,3.043,4.575,3.043
		c2.767,0.691,5.952,4.985,5.952,4.985c3.876,6.923,2.49,24.087,2.49,24.087c-0.552,13.013-15.645,11.769-15.645,11.769
		c-22.007-6.781-15.369-37.108-15.369-37.108c0.138-8.438-7.203-7.057-7.203-7.057c-3.315-0.691-9.547,3.884-9.547,3.884
		c-1.942,1.796-21.593,12.042-21.593,12.042c-9.145,3.88-6.789,6.508-6.789,6.508c-0.134,5.123,7.337,1.8,7.337,1.8
		c1.385-0.146,20.634-12.736,20.634-12.736c5.395-4.721,7.195,0.272,7.195,0.272l-0.276,5.818c0.276,9.271-4.432,7.756-4.432,7.756
		c-2.486,0.276-3.039-4.713-3.039-4.713c-3.043-3.181-5.818,1.523-5.818,1.523c-9.689,5.814-18.834,9.965-18.834,9.965
		c-4.424,0.557-4.566,3.6-4.566,3.6c-0.963,2.36,2.218,3.604,2.218,3.604c3.88,1.243,2.218,4.29,2.218,4.29
		c-2.356,0.829-5.265,3.465-5.265,3.465c-1.243,2.763,3.185,4.148,3.185,4.148c4.294,1.523,0.967,3.6,0.967,3.6
		c-3.181,3.876-25.196,41.674-25.196,41.674C301.561,141.118,308.345,140.837,308.345,140.837 M411.272,31.435
		c1.536,0,2.767,1.142,2.767,2.543c0,1.41-1.231,2.555-2.767,2.555c-1.528,0-2.763-1.146-2.763-2.555
		C408.509,32.577,409.744,31.435,411.272,31.435"/>
	<path class="st3" d="M334.689,511.735c-0.313-0.191-0.699-0.256-1.15-0.183c-0.219,0.041-0.857,0.236-1.922,0.573l-2.04,0.674
		l1.085,3.291l1.93-0.642c1.259-0.406,2.023-0.711,2.304-0.926c0.272-0.211,0.455-0.471,0.548-0.788
		c0.089-0.321,0.081-0.67-0.049-1.064C335.242,512.234,335.018,511.922,334.689,511.735"/>
	<polygon class="st3" points="389.126,506.282 392.831,506.006 390.585,501.099 	"/>
	<path class="st3" d="M439.32,501.464c-1.121-0.142-2.08,0.114-2.876,0.796c-0.784,0.683-1.288,1.788-1.495,3.352
		c-0.203,1.523-0.004,2.73,0.593,3.612c0.601,0.882,1.45,1.394,2.539,1.544c1.085,0.158,2.023-0.13,2.836-0.821
		c0.8-0.682,1.3-1.808,1.511-3.384c0.207-1.548,0.02-2.75-0.557-3.604C441.299,502.114,440.442,501.622,439.32,501.464"/>
	<polygon class="st3" points="345.402,514.129 348.993,513.154 345.873,508.754 	"/>
	<path class="st3" d="M377.994,504.6c0.459-0.114,0.8-0.329,1.028-0.638c0.232-0.297,0.321-0.67,0.264-1.117
		c-0.057-0.406-0.215-0.731-0.479-0.967c-0.264-0.228-0.63-0.333-1.093-0.333c-0.276,0.012-1.056,0.106-2.34,0.28l-1.564,0.211
		l0.414,3.112l1.792-0.24C377.08,504.762,377.738,504.665,377.994,504.6"/>
	<path class="st3" d="M379.179,506.967c-0.39-0.073-1.207-0.033-2.446,0.134l-2.202,0.288l0.487,3.624l2.527-0.345
		c0.987-0.13,1.601-0.236,1.861-0.325c0.39-0.13,0.691-0.366,0.914-0.687c0.215-0.309,0.288-0.711,0.228-1.19
		c-0.049-0.414-0.199-0.744-0.435-0.979C379.882,507.219,379.565,507.048,379.179,506.967"/>
	<path class="st3" d="M528.127,514.152c0,0-88.118-47.606-190.318-20.098l-0.004,0.012c-3.543,1.767-7.057,2.71-10.49,3.084
		c-13.35,4.25-26.903,9.819-40.488,17.002c0,0-26.635,16.571-36.222,8.816l26.094,31.124c0,0,8.532,12.261,20.78,0
		c0,0,115.586-75.11,224.253,1.596c0,0,9.588,9.064,17.047-0.528l30.9-33.972C569.68,521.189,547.839,527.989,528.127,514.152
		 M292.28,541.112c-0.431,1.109-1.284,2.056-2.527,2.811c-1.54,0.951-3.132,1.194-4.774,0.748c-1.633-0.447-3.01-1.589-4.132-3.417
		c-1.19-1.926-1.609-3.738-1.263-5.42c0.341-1.666,1.324-3.018,2.958-4.014c1.426-0.869,2.832-1.158,4.233-0.861
		c0.833,0.179,1.666,0.642,2.498,1.414l-1.978,1.97c-0.516-0.508-1.085-0.817-1.735-0.902c-0.65-0.069-1.288,0.073-1.909,0.459
		c-0.857,0.528-1.377,1.259-1.528,2.21c-0.154,0.947,0.191,2.113,1.032,3.502c0.898,1.467,1.804,2.344,2.714,2.649
		c0.906,0.297,1.792,0.195,2.637-0.325c0.618-0.386,1.032-0.91,1.239-1.589c0.207-0.67,0.15-1.483-0.175-2.458l2.714-0.674
		C292.707,538.698,292.707,540.003,292.28,541.112 M296.347,539.755l-6.317-12.066l8.95-4.684l1.068,2.048l-6.512,3.405l1.398,2.681
		l6.065-3.177l1.065,2.027l-6.061,3.185l1.714,3.27l6.748-3.526l1.068,2.035L296.347,539.755z M314.815,530.691l-8.661-5.822
		l3.656,8.085l-2.328,1.06l-5.61-12.415l2.442-1.109l8.824,6.001l-3.738-8.296l2.328-1.04l5.606,12.411L314.815,530.691z
		 M322.693,527.433l-4.099-10.547l-3.774,1.463l-0.837-2.153l10.092-3.929l0.841,2.149l-3.762,1.458l4.107,10.551L322.693,527.433z
		 M352.391,517.821l-1.95-2.677l-5.261,1.402l-0.284,3.291l-2.742,0.735l-3.124,1.04l-2.824-2.186
		c-0.999-0.796-1.67-1.272-2.003-1.467c-0.329-0.158-0.65-0.248-0.967-0.264c-0.305,0-0.76,0.085-1.353,0.28l-0.532,0.179
		l1.783,5.407l-2.616,0.861l-4.27-12.944l5.493-1.808c1.385-0.459,2.434-0.674,3.132-0.654c0.703,0.032,1.345,0.276,1.918,0.743
		c0.569,0.475,0.979,1.101,1.231,1.853c0.329,0.983,0.305,1.873-0.061,2.69c-0.353,0.821-1.077,1.499-2.165,2.039
		c0.683,0.142,1.263,0.349,1.759,0.626c0.504,0.272,1.227,0.812,2.182,1.609l2.352,1.942l1.584-14.459l2.807-0.756l8.804,11.753
		L352.391,517.821z M356.599,516.801l-2.803-13.22l2.694-0.577l2.324,10.981l6.691-1.422l0.475,2.247L356.599,516.801z
		 M383.206,510.061c-0.215,0.618-0.544,1.138-0.995,1.552c-0.443,0.41-1.02,0.715-1.739,0.882c-0.451,0.11-1.544,0.297-3.274,0.548
		l-4.599,0.605l-1.816-13.5l5.395-0.723c1.073-0.154,1.881-0.211,2.409-0.187c0.54,0.008,1.032,0.134,1.487,0.362
		c0.447,0.232,0.849,0.561,1.19,0.999c0.333,0.418,0.548,0.926,0.626,1.503c0.081,0.646-0.012,1.255-0.28,1.82
		c-0.268,0.573-0.683,1.032-1.227,1.381c0.853,0.13,1.544,0.447,2.068,0.959c0.516,0.52,0.829,1.182,0.938,1.95
		C383.466,508.826,383.409,509.439,383.206,510.061 M395.3,511.235l-1.414-3.002l-5.428,0.402l-0.894,3.165l-2.913,0.223
		l4.282-13.983l2.905-0.219l6.447,13.191L395.3,511.235z M407.602,510.874l-5.615-8.804l0.122,8.877l-2.555,0.045l-0.183-13.626
		l2.673-0.041l5.708,9.023l-0.13-9.092l2.551-0.041l0.195,13.622L407.602,510.874z M425.408,511.446l-3.551-0.158l-3.445-6.569
		l-2.332,2.174l-0.195,4.12l-2.75-0.138l0.642-13.598l2.742,0.122l-0.276,6.045l5.834-5.789l3.689,0.179l-5.367,5.058
		L425.408,511.446z M445.238,507.006c-0.292,2.174-1.109,3.815-2.458,4.887c-1.353,1.065-3.027,1.479-5.001,1.203
		c-2.015-0.264-3.526-1.085-4.546-2.478c-1.02-1.385-1.393-3.144-1.109-5.293c0.187-1.381,0.548-2.507,1.089-3.372
		c0.394-0.654,0.898-1.227,1.503-1.702c0.605-0.471,1.235-0.8,1.914-0.979c0.882-0.236,1.877-0.288,2.974-0.138
		c1.995,0.272,3.498,1.097,4.53,2.49C445.16,503.016,445.538,504.808,445.238,507.006 M457.568,504.771l-6.468-1.247l-0.618,3.161
		l5.59,1.089l-0.439,2.259l-5.586-1.077l-1.101,5.684l-2.698-0.524l2.58-13.374l9.177,1.763L457.568,504.771z M470.373,519.673
		l-2.941-10.014l-2.348,8.564l-2.466-0.682l3.604-13.13l2.58,0.703l2.97,10.242l2.413-8.771l2.454,0.674l-3.591,13.151
		L470.373,519.673z M475.585,521.237l4.115-12.972l2.625,0.821l-4.124,12.988L475.585,521.237z M489.91,525.735
		c-1.174,0.033-2.287-0.146-3.344-0.524c-1.341-0.487-2.405-1.194-3.197-2.121c-0.792-0.922-1.247-1.999-1.369-3.234
		c-0.126-1.227,0.041-2.45,0.483-3.685c0.496-1.316,1.203-2.413,2.133-3.246c0.938-0.829,2.052-1.332,3.323-1.491
		c0.975-0.138,2.076,0.032,3.291,0.471c1.597,0.589,2.718,1.361,3.368,2.356c0.654,0.991,0.89,2.121,0.715,3.392l-2.734-0.459
		c0.041-0.691-0.11-1.312-0.479-1.857c-0.366-0.536-0.922-0.951-1.67-1.223c-1.125-0.402-2.157-0.37-3.079,0.106
		c-0.93,0.463-1.645,1.418-2.157,2.828c-0.557,1.519-0.63,2.775-0.24,3.782c0.406,1.007,1.154,1.694,2.251,2.1
		c0.544,0.191,1.121,0.289,1.747,0.28c0.618-0.02,1.186-0.118,1.682-0.272l0.589-1.625l-2.958-1.077l0.78-2.149l5.574,2.031
		l-1.857,5.098C492.035,525.535,491.08,525.714,489.91,525.735 M504.751,529.83l-0.902,2.109l-9.531-4.05l5.338-12.549l9.295,3.961
		l-0.902,2.133l-6.764-2.885l-1.178,2.779l6.285,2.673l-0.898,2.117l-6.289-2.677l-1.458,3.4L504.751,529.83z M516.021,532.385
		c0.175,0.54,0.317,1.43,0.447,2.673l0.329,3.124l-2.953-1.454l-0.496-3.522c-0.171-1.267-0.309-2.08-0.431-2.437
		c-0.11-0.354-0.272-0.658-0.496-0.878c-0.215-0.199-0.601-0.467-1.178-0.731l-0.5-0.248l-2.482,5.111l-2.478-1.198l5.956-12.253
		l5.208,2.523c1.312,0.646,2.21,1.215,2.698,1.719c0.492,0.516,0.776,1.138,0.853,1.877c0.085,0.735-0.045,1.458-0.402,2.19
		c-0.451,0.906-1.089,1.548-1.922,1.889c-0.833,0.329-1.82,0.305-2.978-0.057C515.582,531.288,515.858,531.853,516.021,532.385
		 M517.894,538.832l6.382-12.034l2.429,1.296l-6.378,12.034L517.894,538.832z M533.214,547.405l-2.6-1.503l0.512-3.274l-4.725-2.706
		l-2.515,2.129l-2.531-1.458l11.379-9.165l2.523,1.438L533.214,547.405z"/>
	<polygon class="st3" points="531.506,540.199 532.391,534.881 528.276,538.346 	"/>
	<path class="st3" d="M517.466,527.795c0.203-0.406,0.252-0.796,0.154-1.162c-0.098-0.345-0.329-0.666-0.699-0.93
		c-0.191-0.122-0.776-0.431-1.779-0.926l-1.93-0.939l-1.515,3.12l1.832,0.89c1.186,0.577,1.95,0.886,2.291,0.93
		c0.345,0.041,0.662-0.024,0.947-0.187C517.056,528.425,517.283,528.157,517.466,527.795"/>
	<path class="st4" d="M296.516,212.502c12.115,10.213,54.549,45.436,68.731,50.165c0,0,22.998,10.059,42.84,32.318
		c0,0,3.421,3.677,11.578-2.974l22.572-22.259l19.362-6.533c0,0,45.615-33.305,63.588-48.439c-4.469-2.836-6.752-2.507-6.752-2.507
		c-5.184,8.312-61.126,44.307-61.126,44.307l-15.072,4.424l-22.572,17.164c-4.835,8.312-12.923,3.884-12.923,3.884l-23.226-21.048
		l-24.555-10.998c-9.608-2.129-57.364-39.948-57.364-39.948C300.339,209.078,298.466,210.366,296.516,212.502"/>
	<path class="st4" d="M458.321,360.622c0,0-5.18-17.063-7.288-10.957c0,0-0.475,9.413-3.368,15.548c0,0-0.561,4.701,10.039,10.213
		c0,0,43.178,46.188-23.425,86.798c0,0-10.538,8.995,1.077,4.505c0,0,49.422-20.451,38.461-72.392
		C471.891,385.213,468.494,381.333,458.321,360.622"/>
	<path class="st4" d="M367.938,372.096c7.987-5.862,5.184-11.209,5.184-11.209c-2.665-0.54-4.969-16.746-4.969-16.746
		c-3.734,0-4.331,9.693-4.331,9.693c-0.532,5.854-9.588,24.502-9.588,24.502c-20.025,38.558-3.498,61.744-3.498,61.744
		c9.498,15.194,5.095-0.487,5.095-0.487C330.172,409.237,367.938,372.096,367.938,372.096"/>
	<path class="st4" d="M308.556,170.964c41.057-11.887,57.701,42.934,57.701,42.934c1.637,10.701,8.044,10.327,8.044,10.327
		c1.8-2.429,18.188,2.649,18.188,2.649c1.804-3.734-7.02-8.763-7.02-8.763c-5.269-3.205-18.428-20.801-18.428-20.801
		c-26.606-37.681-56.479-31.68-56.479-31.68C291.635,168.226,308.556,170.964,308.556,170.964"/>
	<path class="st4" d="M293.862,309.966c9.539,2.23,14.833,0.589,39.302-0.154c0,0,18.582,2.588,13.854-2.312
		c0,0-8.649-4.778-13.004-10.477c0,0-4.16-2.71-14.499,5.403c0,0-64.502,22.243-70.393-63.088c0,0-3.36-14.682-4.77-0.979
		C244.351,238.358,239.614,297.266,293.862,309.966"/>
	<path class="st4" d="M457.308,195.267c0,0-13.171,17.591-18.428,20.805c0,0-8.836,5.017-7.024,8.755c0,0,16.397-5.078,18.188-2.649
		c0,0,6.407,0.374,8.048-10.315c0,0,16.645-54.837,57.697-42.946c0,0,16.921-2.738-2.007-5.334
		C513.783,163.583,483.91,157.586,457.308,195.267"/>
	<path class="st4" d="M504.834,300.386c-10.339-8.117-14.499-5.411-14.499-5.411c-4.363,5.692-13.013,10.477-13.013,10.477
		c-4.721,4.904,13.862,2.308,13.862,2.308c24.473,0.752,29.763,2.393,39.294,0.158c54.248-12.696,49.515-71.608,49.515-71.608
		c-1.41-13.695-4.761,0.983-4.761,0.983C569.328,322.617,504.834,300.386,504.834,300.386"/>
	<path class="st4" d="M612.154,251.395c-1.897-14.122-12.415-13.736-17.599-12.639c-0.951-21.678-9.247-36.45-9.247-36.45
		c-15.105-30.441-35.743-44.567-47.939-50.628c-5.058-10.563-22.487-31.502-22.487-31.502c-17.416-15.763-12.493-17.01-12.493-17.01
		c0.37-5.391,6.691,0,6.691,0c11.615,7.057,7.76-3.738,7.76-3.738l-8.588-8.296c-8.3-6.63,5.391-3.319,5.391-3.319
		c7.471,0-0.821-9.539-0.821-9.539c-5.818-5.399-0.841-7.885-0.841-7.885c9.543,1.243,2.08-2.905,2.08-2.905l-32.367-28.621
		c-7.053-4.977-14.93-7.886-14.93-7.886c-23.649-1.658-21.987,20.74-21.987,20.74c2.49,14.109,0,21.577,0,21.577
		c-7.882,4.152-10.79-6.634-10.79-6.634c-3.323-5.81-2.377-25.314-2.377-25.314c2.612-12.858-9.653-19.078-9.653-19.078
		c-9.129-6.642-17.843,0-17.843,0c-2.076,2.389-13.277,10.368-13.277,10.368c-2.901,1.251-3.319,4.562-3.319,4.562
		c-0.878,2.381,5.212,4.562,5.212,4.562c5.22,2.08,8.292,7.979,8.292,7.979c6.959,19.042-8.292,21.065-8.292,21.065
		c-15.527,1.666-11.018-23.226-11.018-23.226c2.901-14.942-3.205-16.876-3.205-16.876c-6.439-4.526-20.354,2.429-20.354,2.429
		c-39.411,25.306-49.466,26.054-49.466,26.054c-7.467,5.814,1.247,7.475,1.247,7.475c5.81,0,2.076,7.877,2.076,7.877
		c-3.733,1.666-4.985,5.395-4.985,5.395c-3.319,2.905,4.57,5.81,4.57,5.81c5.391,3.738-1.247,7.471-1.247,7.471
		c-7.049,6.638,0,7.886,0,7.886c8.304-3.323,2.486,6.598,2.486,6.598l-27.443,46.838h0.004
		c-12.334,6.468-31.883,20.646-46.367,49.816c0,0-7.67,13.638-9.116,33.939c-0.077-0.032-0.142-0.098-0.232-0.126
		c0,0-17.811-7.374-20.707,11.44V359.64c0,0-1.012,22.357,10.356,35.784l68.565,82.5H261.79c0,0-37.815,7.463-23.433,42.617
		l37.815,43.677c0,0,10.66,8.523,21.841,0c0,0,106.002-78.839,218.398-1.068c0,0,16.515,10.116,25.038-0.532l39.948-39.651
		c0,0,15.446-36.523-25.038-45.042h-25.57h-1.568l69.861-80.936c11.611-13.212,11.022-35.589,11.022-35.589L612.154,251.395z
		 M525.986,152.673c0,0,4.692,1.166,11.684,4.908c11.668,6.236,29.742,19.631,43.173,46.704c0,0,8.544,15.202,8.808,37.14
		c0.15,12.005-2.169,26.013-9.738,40.687c0,0-7.467,18.29-29.714,29.933c-16.584,8.666-41.378,13.646-77.47,4.554
		c0,0-25.298,1.95-10.555-16.58c0,0,14.69-10.441,18.209-15.251c0,0,5.025-6.898,15.499-2.563c0,0,20.837,18.168,46.818,0.618
		c0,0,35.934-20.878,14.727-67.537c0,0-22.194-48.723-58.961-33.387c0,0-28.203,9.336-28.853,34.549c0,0,1.69,15.442-13.151,17.989
		c0,0-11.908-0.167-21.877,2.186c0,0-27.532,7.118-15.093-9.417c0,0,7.52-9.799,11.014-17.091c0,0,38.16-67.334,91.015-58.351
		C523,152.015,524.487,152.3,525.986,152.673 M548.078,351.632c0,0-0.626-1.328,2.905-3.88l12.261-7.959
		c0,0,2.486-2.917,2.088-5.103c0,0,1.154-5.789,3.368-7.191c0,0,3.311-1.974,3.209-14.243c0,0,0.744-13.768,4.05-12.57
		c0,0,4.904-2.754,3.705,7.882c0,0-3.271,42.158-7.646,49.881l-20.472,22.296c0,0-10.859,4.542-7.581-7.833
		C543.967,372.912,549.789,361.521,548.078,351.632 M552.738,324.173c0,0,3.721-12.736,10.409-8.901c0,0,4.099,5.797-1.284,12.107
		c0,0-5.025,10.457-10.827,5.988C551.036,333.367,546.953,329.897,552.738,324.173 M526.591,325.119l-6.216,1.934l-1.064-1.028
		C521.822,325.802,524.259,325.505,526.591,325.119 M472.904,458.926c-6.061,11.302-5.038,19.639-2.295,25.29
		c-7.496-0.947-19.541-2.247-34.549-3.161c12.688-4.44,27.813-13.289,40.155-30.815c0,0,0.589-0.695,1.523-2.035l-2.255,5.895
		c8.422-15.552-1.276,3.368-1.276,3.368l1.276-3.368C474.76,455.457,473.919,457.017,472.904,458.926 M472.302,447.579
		c-17.242,24.481-40.24,31.006-52.968,32.688c-5.822,0.776-9.511,0.524-9.511,0.524c-4.343-0.045-8.434-0.341-12.318-0.841
		c-34.804-4.416-50.815-24.827-50.815-24.827c-32.655-41.707,9.052-106.018,9.052-106.018c4.518-6.033,9.49-16.588,9.49-16.588
		c8.491-17.587,13.504,9.064,13.504,9.064c2.011,9.543,6.797,19.712,6.797,19.712c3.746,13.821-9.393,18.798-9.393,18.798
		c-20.098,11.062-16.604,39.204-16.604,39.204c2.003,37.99,50.019,36.787,50.019,36.787c45.969-1.198,48.772-40.793,48.772-40.793
		c4.014-29.641-18.802-39.988-18.802-39.988c-7.597-7.211-4.002-14.402-4.002-14.402c2.515-5.025,5.2-21.995,5.2-21.995
		c9.202-20.402,17.522,2.161,17.522,2.161c7.999,10.161,13.797,19.785,17.916,28.796l7.313,24.961l1.398,10.197
		C485.697,431.771,472.302,447.579,472.302,447.579 M344.33,459.694c3.539,3.839,14.569,14.353,33.939,20.715
		c-10.124,0.423-20.569,1.17-31.12,2.34C349.181,477.252,349.429,469.655,344.33,459.694 M343.05,458.235
		c0,0-9.34-19.119-1.219-3.392L343.05,458.235z M337.834,358.376c0,0,4.046,7.077,1.251,14.829
		c-2.174,5.554-4.221,11.717-5.842,18.221c-0.187,0.691-0.349,1.3-0.451,1.767c0,0-7.313,11.79-10.847,0
		c0,0-15.048-49.934-16.25-55.934c0,0-1.682-6.476,5.521-5.753c0,0,7.142-1.739,10.165,2.844L337.834,358.376z M333.036,331.185
		h17.989c0,0,5.517-1.117,2.397,5.598c0,0-5.732,9.084-5.635,13.195c0,0-3.25,8.487-6.24-1.633c0,0-5.216-9.165-7.341-10.599
		C334.206,337.746,328.717,333.253,333.036,331.185 M365.516,240.109c0,0,20.171,1.848,30.734,4.339c0,0,13.557,2.247,17.116-3.173
		c5.156,2.71,14.731,1.125,14.731,1.125c10.567-2.478,30.738-4.331,30.738-4.331c22.885-6.468,16.153-20.358,16.153-20.358
		c0.691-26.724,24.859-31.831,24.859-31.831c31.664-11.375,54.797,31.286,54.797,31.286c17.551,44.924-13.557,61.545-13.557,61.545
		c-27.536,18.615-43.937-2.462-43.937-2.462c-8.816-7.715-21.873,7.292-21.873,7.292c-3.725,5.099-19.492,16.035-19.492,16.035
		c-5.025,6-5.468,10.388-3.697,13.577l0.565,8.292l-5.562,3.303v0.012c-3.177-0.049-6.423,2.202-9.222,8.828
		c0,0-2.669,18.111-5.326,23.441c0,0-7.012,17.465,2.657,21.841c0,0,23.445,5.318,19.18,36.746c0,0-0.869,22.682-25.05,32.814
		c-4.916-21.979-5.383-77.694-5.383-77.694c-2.767-18.176,1.67-50.584,1.67-50.584l16.624-20.931
		c-1.093-3.311,15.068-15.995,15.068-15.995h8.995c19.098-22.076,65.628-44.953,65.628-44.953
		c13.224-2.303,7.597-9.917,5.192-12.541c-13.594,8.186-43.685,26.655-52.213,34.719c0,0-21.829,14.394-32.257,16.055
		c0,0-33.939,32.347-34.089,40.821c0,0-1.316,93.022,2.649,132.352c0.041,0.37,0.081,0.756,0.118,1.129
		c0.008,0.077,0.02,0.171,0.028,0.244c-0.654,0.163-1.337,0.309-2.019,0.467c-1.735,0.471-4.103,0.91-6.793,1.109
		c-0.849,0.085-1.686,0.203-2.563,0.276c0,0-0.837-0.041-2.267-0.199c-2.592-0.097-5.253-0.463-7.707-1.227
		c0.004-0.362,0.012-0.788,0.029-1.174c0.886-29.556,2.97-109.244,0.483-132.234c-0.041-0.325-0.077-0.65-0.11-0.951
		c-0.045-0.325-0.085-0.63-0.118-0.926c-0.085-0.532-0.167-1.04-0.248-1.475c-0.008-0.073-0.016-0.126-0.033-0.187
		c-0.098-0.536-0.215-1.004-0.329-1.381c0,0-19.391-31.558-40.72-36.645c0,0-18.253-7.333-36.165-28.032
		c0,0-27.679-16.031-39.464-21.841c-6.025,3.526-3.449,9.486-3.449,9.486c29.271,8.893,74.5,49.247,74.5,49.247
		c14.044-7.199,34.122,25.72,34.122,25.72c4.428,5.785,4.225,12.399,4.225,12.399c3.677,8.211,4.631,57.47,4.631,57.47
		c-0.934,10.157-3.62,55.288-4.408,68.687c-12.574-3.892-27.821-12.395-29.669-30.831c0,0-5.322-22.905,15.982-34.626
		c0,0,13.845,0,10.12-22.369c0,0-6.395-18.107-8.519-28.231c0,0-1.004-3.599-2.811-7.069h0.004l-0.028-0.032
		c-1.154-2.214-2.637-4.375-4.412-5.505l-0.024-0.033l-0.719-7.231l-0.016,0.008c0.926-3.027,0-6.955-4.298-12.107
		c0,0-15.775-10.933-19.497-16.043c0,0-13.045-14.999-21.865-7.288c0,0-16.405,21.089-43.945,2.462c0,0-31.095-16.612-13.553-61.541
		c0,0,23.133-42.662,54.797-31.278c0,0,24.169,5.107,24.855,31.818C349.355,219.751,342.632,233.641,365.516,240.109
		 M414.207,151.585c0,0-2.775,7.601-2.937,10.604c0,0-4.997,6.204-10.725,1.048l-4.469-3.055c0,0-3.51,0.11-3.344-4.323v-14.252
		c0,0,0.703-4.424,3.344-6.334c0,0,3.953-5.07,9.027,0c0,0,9.182,7.756,10.441,8.231
		C415.544,143.504,416.982,145.718,414.207,151.585 M417.132,170.581c0,0,2.535-0.63,2.535,3.173v5.216c0,0,0,3.327-2.535,3.169
		c0,0-0.301,1.901-2.925,2.06h-2.937c0,0-2.21,0.292-2.372-2.706v-6.472c0,0,0.162-1.918,2.372-1.918c0,0,0.016-2.523,2.937-2.523
		H417.132z M404.327,188.16c-0.622,2.69-6.35,1.422-6.35,1.422c-6.496,0.158-5.249-2.06-5.249-2.06
		c-0.179-1.422,0.496-4.115,0.496-4.115h2.852c2.681-0.471,2.844-9.653,2.844-9.653l5.407-0.642c2.872-0.15,2.381,3.169,2.381,3.169
		l-0.029,6.334C407,188.16,404.327,188.16,404.327,188.16 M392.732,132.21c-6.399,0-5.627,8.71-5.627,8.71l0.833,22.316
		c-0.833,6.963,4.794,9.628,4.794,9.628c3.555,1.247,3.084,4.152,3.084,4.152c-0.829,4.977-6.638,2.909-6.638,2.909
		c-4.022-0.955-7.861,1.605-10.433,3.977c-14.581-16.283-36.397-34.292-62.499-35.991l0.008-0.008
		c0.516-9.608,9.446-9.474,9.446-9.474c2.905,4.981,16.181,0.418,16.181,0.418c2.494,0.829,11.623-2.076,11.623-2.076
		c2.482-7.471,12.44-7.882,12.44-7.882c4.977,1.649,15.353-6.224,15.353-6.224c2.901-5.387,6.224-0.825,6.224-0.825
		C394.158,123.496,392.732,132.21,392.732,132.21 M388.706,196.074c11.794-5.038,38.599-1.361,45.623-0.268
		c-5.436,7.443-8.406,12.683-8.406,12.683c-3.697,7.727-11.672,18.115-11.672,18.115c-1.146,1.621-1.991,3.063-2.637,4.388
		c-0.455-0.743-0.938-1.523-1.519-2.344c0,0-7.975-10.384-11.668-18.111C398.428,210.537,394.979,204.456,388.706,196.074
		 M427.268,170.541c2.69-0.829,3.165,2.563,3.165,2.563h1.178v2.072c0,0,1.036,2.531,1.19,3.323
		c0.158,0.792-0.309,1.901-0.309,1.901l1.268,1.093h1.722c0,0-0.455,2.86-0.142,2.714c0.317-0.146,0,3.636,0,3.636l-2.848,2.035
		h-3.961l-2.689-0.613h-1.747l-1.739-0.951v-2.06v-2.689v-0.951l1.263-1.121l1.113,1.121l1.109-9.511
		C422.519,171.366,427.268,170.541,427.268,170.541 M468.605,330.299l17.985,0.333c4.282,2.157-1.288,6.533-1.288,6.533
		c-2.153,1.406-7.54,10.469-7.54,10.469c-3.181,10.067-6.273,1.511-6.273,1.511c0.183-4.099-5.383-13.297-5.383-13.297
		C463.113,329.076,468.605,330.299,468.605,330.299 M478.998,365.104c0.475-4.327,2.287-7.382,2.287-7.382l16.904-23.701
		c3.108-4.518,10.218-2.661,10.218-2.661c7.207-0.581,5.411,5.858,5.411,5.858c-1.312,5.976-17.295,55.617-17.295,55.617
		c-2.133,6.671-5.342,5.692-7.715,3.612C487.533,387.005,484.551,376.504,478.998,365.104 M448.601,150.914l0.987-0.91l1.747-0.849
		l3.64,0.849h1.739l1.584-3.014c0,0,2.694-0.167,3.169,0c0.475,0.158,1.739,0.089,2.214,1.471c0.475,1.377,1.743,3.124,2.214,3.437
		c0.483,0.317,0.955,3.961-1.263,4.753h-4.749h-1.938l-1.385,0.626l0.317,1.747l-2.69,1.158h-1.905
		c-1.597,0-2.531-0.207-2.694-0.683c-0.154-0.475,0.475-1.426,0-2.056c-0.467-0.634-1.422-2.06-1.268-2.539
		c0.158-0.475,0.642-1.946,0.642-1.946L448.601,150.914z M468.427,157.581c12.034-2.015,4.148-6.667,4.148-6.667l-17.014-11.652
		c-15.767-7.882-8.71-14.52-8.71-14.52c4.562-6.634,13.691,4.558,13.691,4.558c3.738,5.814,16.019,5.814,16.019,5.814l14.914,14.061
		c-20.691,6.894-37.726,22.905-49.235,36.564l-4.514-3.331l1.243-12.862c1.247-1.243,3.271-4.266,3.271-4.266
		C451.315,166.401,468.427,157.581,468.427,157.581 M470.495,100.367c0,0-1.036-5.334,3.1-5.684c0,0,5.168-0.691,7.581,7.065
		c0,0,5.509,17.746,13.094,27.735c0,0,1.381,4.997-1.207,6.374c0,0-5.172,4.136-11.375-6.374
		C481.687,129.484,470.665,109.496,470.495,100.367 M515.46,132.929c0,0,5.164,6.545,1.893,8.097c0,0-2.929,1.954-8.446-4.359
		c0,0-20.325-14.577-21.702-28.971c0,0-6.72-9.425-1.552-13.021c0,0,6.943-3.782,8.987,5.005
		C494.639,99.681,508.907,126.035,515.46,132.929 M308.347,132.255c0,0,22.015-37.799,25.196-41.67c0,0,3.323-2.076-0.967-3.604
		c0,0-4.428-1.385-3.189-4.144c0,0,2.913-2.641,5.265-3.465c0,0,1.658-3.043-2.214-4.298c0,0-3.185-1.239-2.218-3.591
		c0,0,0.142-3.047,4.574-3.608c0,0,9.133-4.148,18.826-9.962c0,0,2.767-4.709,5.814-1.523c0,0,0.548,4.981,3.047,4.705
		c0,0,4.704,1.523,4.428-7.752l0.276-5.814c0,0-1.804-4.981-7.203-0.28c0,0-19.237,12.602-20.63,12.74c0,0-7.471,3.323-7.333-1.8
		c0,0-2.36-2.632,6.789-6.508c0,0,19.651-10.242,21.589-12.037c0,0,6.236-4.575,9.555-3.884c0,0,7.329-1.385,7.199,7.065
		c0,0-6.646,30.315,15.373,37.104c0,0,15.084,1.239,15.637-11.774c0,0,1.385-17.164-2.49-24.087c0,0-3.185-4.294-5.952-4.981
		c0,0-4.424-1.113-4.575-3.047c0,0,1.117-3.469,4.575-4.16c0,0,5.818-4.01,7.203-4.981c0,0,2.49-2.49,7.053-2.352
		c0,0,4.29-0.142,9.279,5.74c0,0,6.232,4.087,4.018,13.5c0,0,0,21.877,4.985,28.942c0,0,4.843,9.267,12.456,7.199
		c0,0,6.094-0.971,6.094-13.569c0,0-0.557-10.778-1.251-13.971c0,0-1.8-15.938,10.522-16.214c0,0,9.413-0.691,13.703,2.632
		c0,0,13.715,9.689,17.587,15.227c0,0-3.742,1.942-2.633,4.294c0,0-15.231-12.594-23.535-11.355c0,0-6.642,2.08-3.599,9.97
		l0.695,1.804c0,0,1.8-8.028,10.933-3.474c0,0,17.165,9.84,20.634,14.816l-3.88,3.88c0,0-3.189,2.222,0,5.127
		c0,0,7.483,6.09,5.399,9.413c0,0-3.734,3.876-9.832-5.403c0,0-6.642-4.01-6.228,4.574c0,0-10.66,6.086-13.841-0.699
		c0,0,0.687-10.79-3.051-11.627c0,0-2.49-0.134-2.352,4.843c0,0-2.352,12.326-16.202,12.883c0,0-10.794-0.829-15.641-11.497
		c0,0-2.905-3.734-4.428-0.829c0,0-2.629,4.57,0.553,8.312c0,0,9.003,13.008,22.43,8.995c0,0,0.967-2.356,7.479-2.356h6.919
		c0,0,4.014-1.247,4.709,4.57l6.919,21.463c0,0,1.52,5.672-1.938,5.81c0,0-4.57,0.967-7.061-8.17
		c-2.49-9.133-4.29-12.736-6.366-13.008c0,0-1.942,1.8-1.109,6.366c0,0-0.691,4.152-3.595,3.876c0,0-4.018-0.691-3.88-5.952
		c0,0,0.276-4.018-2.214-2.08c0,0-1.105,4.294-2.633,4.022c0,0-3.323,0.134-3.323-3.461c0,0-2.072-1.528-2.486,0.557
		c0,0,2.214,14.109-1.942,13.008c0,0-3.327,1.796-7.479-2.218c0,0-3.043,0.561-1.662,3.604c0,0,5.403,9.543,5.675,12.879
		c0,0,0.841,2.905,2.222,0.825c0,0,3.185-4.29,5.541-0.134l1.235,14.674c0,0-0.548,3.872-2.21,3.734c0,0-1.247,0.138-0.833,2.214
		c0,0-0.691,2.494-4.843,1.523l-6.789,0.223c0,0-2.352,1.024-2.625-2.295c0,0-2.214-1.946-2.36-5.399l0.146-3.88
		c0,0-0.882-7.557,2.161-7.142l-0.089-2.69l-17.437-9.693c0,0-19.525-9.685-18.14-28.243c0,0,0.695-15.361-5.537-18.96
		c0,0-14.54,2.633-15.783-5.533c0,0-4.022-4.436-6.785-1.117l-3.742,2.36c0,0-1.658,2.629,4.44,2.076c0,0,6.915,0.418,8.3,11.635
		c0,0-0.276,3.173,2.495,0c0,0,1.523-2.08,4.286,0.268c0,0,6.232,6.508,7.617,11.079c0,0,0.691,1.105,0.561,3.043l0.13,6.923
		c0,0,0.422,2.352-0.829,2.49c0,0-1.247,2.629-3.185,2.352c0,0-3.319,0.426-2.909-3.043l-0.561-6.561c0,0-1.519-6.703-2.624,0
		l-0.272,7.804c0,0-0.829,2.771-2.356,2.909c0,0-0.414,2.356-2.214,2.076c0,0-1.239,2.356-2.214,2.356c0,0-1.528,0.272-1.528-2.771
		c0,0-3.591,0.414-3.185-2.771c0,0-0.963-0.829-1.662,2.076l-5.81,8.308c0,0-1.251,1.67-3.043,0.284c0,0-2.629-2.499,0-7.483
		c0,0,2.072-4.709,3.181-5.537c0,0,0.138-4.16,3.181-5.119c0,0-2.348-8.722,2.356-10.526c0,0,2.348-1.662-0.138-8.024
		c0,0-3.181-4.298-5.676,0.28c0,0-5.675,20.898-9.413,23.941c0,0-11.631,21.048-14.536,15.787c0,0-7.479-4.432,5.948-16.892
		c0,0,12.602-16.754,9.97-24.225c0,0-2.771-3.323-6.915,3.189c0,0-21.739,34.878-23.953,41.662c0,0-4.014,6.374-8.032,5.814
		C308.347,140.835,301.563,141.115,308.347,132.255 M243.5,206.328c21.499-43.312,54.866-51.612,54.866-51.612
		c55.154-13.732,95.48,57.446,95.48,57.446c3.486,7.284,11.014,17.087,11.014,17.087c12.436,16.531-15.097,9.409-15.097,9.409
		c-9.97-2.34-21.877-2.174-21.877-2.174c-14.837-2.543-13.147-17.993-13.147-17.993c-0.654-25.213-28.861-34.544-28.861-34.544
		c-36.755-15.328-58.961,33.387-58.961,33.387c-21.203,46.655,14.739,67.533,14.739,67.533c25.98,17.555,46.81-0.613,46.81-0.613
		c10.473-4.335,15.507,2.568,15.507,2.568c3.51,4.802,18.196,15.239,18.196,15.239c14.747,18.542-10.542,16.584-10.542,16.584
		c-31.327,7.898-54.147,5.184-70.474-1.333c-0.049-0.02-0.11-0.049-0.175-0.065c-0.772-0.317-1.507-0.646-2.251-0.971
		c-1.767-0.772-3.461-1.588-5.074-2.438c-1.162-0.626-2.283-1.267-3.36-1.917c-19.261-11.603-25.855-27.756-25.855-27.756
		c-4.68-9.088-7.361-17.9-8.686-26.163v-0.004c-0.305-1.881-0.52-3.738-0.691-5.558C232.571,225.776,243.5,206.328,243.5,206.328
		 M251.003,326.521c2.186,1.434,3.23,7.244,3.23,7.244c-0.443,2.182,1.999,5.139,1.999,5.139l12.107,8.194
		c3.49,2.62,2.832,3.92,2.832,3.92c-1.897,9.868,3.705,21.365,3.705,21.365c3.051,12.424-7.715,7.686-7.715,7.686l-20.057-22.678
		c-4.221-7.8-6.711-50.011-6.711-50.011c-1.003-10.648,3.855-7.812,3.855-7.812c3.331-1.129,3.815,12.651,3.815,12.651
		C247.729,324.482,251.003,326.521,251.003,326.521 M256.784,314.398c6.756-3.705,10.242,9.092,10.242,9.092
		c5.667,5.83,1.528,9.218,1.528,9.218c-5.891,4.363-10.717-6.187-10.717-6.187C252.572,320.106,256.784,314.398,256.784,314.398
		 M226.351,389.309c-10.132-8.682-7.963-28.235-7.963-28.235V256.847c3.904-19.513,10.949-0.11,13.988,9.844
		c0.423,1.686,0.914,3.396,1.459,5.107l1.255,72.339c-2.836,12.013,9.157,22.909,9.157,22.909l46.525,45.424l-10.9-58.624
		c-8.016-26.066,5.834-25.29,5.834-25.29c9.726-0.301,10.315,15.58,10.315,15.58c4.339,23.437,41.8,111.775,41.8,111.775
		c10.136,19.541-3.616,29.584-3.616,29.584c-19.306,17.713-38.185-7.573-38.185-7.573L226.351,389.309z M271.914,485.496
		c0,0,27.081-4.416,23.433,10.855c0,0,0,9.807-19.708,14.061c0,0-21.837,6.399-25.034-3.193
		C250.605,507.218,244.743,492.004,271.914,485.496 M538.783,555.157c-7.459,9.596-17.051,0.528-17.051,0.528
		c-108.663-76.706-224.253-1.593-224.253-1.593c-12.249,12.253-20.768,0-20.768,0l-26.106-31.128
		c9.588,7.76,36.226-8.816,36.226-8.816c13.573-7.183,27.13-12.749,40.492-17.002c3.425-0.362,6.939-1.312,10.482-3.084v-0.008
		c102.207-27.512,190.322,20.094,190.322,20.094c19.712,13.854,41.552,7.037,41.552,7.037L538.783,555.157z M544.857,485.496
		c27.171,6.508,21.309,21.723,21.309,21.723c-3.193,9.592-25.03,3.193-25.03,3.193c-19.712-4.254-19.712-14.061-19.712-14.061
		C517.779,481.079,544.857,485.496,544.857,485.496 M592.17,390.747l-71.307,87.294c0,0-7.581,9.763-17.916,12.651
		c-5.615,1.552-12.042,1.077-18.501-4.124c-0.642-0.512-1.267-1.06-1.905-1.67c0,0-13.561-10.303-3.067-29.653
		c0,0,39.107-87.61,43.889-110.962c0,0,0.882-15.873,10.599-15.381c0,0,13.862-0.52,5.367,25.375l-11.997,58.425l47.366-44.559
		c0,0,12.192-10.656,9.584-22.722l2.352-65.457l0.256-6.846c0,0,0.11-0.414,0.317-1.125c0.008-0.008,0.008-0.008,0.008-0.02
		c0.073-0.236,0.15-0.492,0.244-0.796c0.093-0.301,0.187-0.618,0.292-0.963c0-0.016,0.008-0.029,0.02-0.049
		c0.102-0.341,0.215-0.715,0.333-1.097c0.008-0.012,0.016-0.02,0.016-0.028c1.007-3.181,2.559-7.654,4.302-11.469
		c0.471-1.04,0.955-2.027,1.446-2.925c1.133-2.048,2.303-3.632,3.437-4.286c0.065-0.032,0.126-0.081,0.191-0.114
		c0.114-0.057,0.248-0.089,0.366-0.126c0.085-0.024,0.163-0.061,0.252-0.073c0.11-0.02,0.223-0.016,0.325-0.012
		c0.097,0,0.191,0,0.28,0.016c0.114,0.028,0.215,0.057,0.305,0.106c0.106,0.032,0.199,0.081,0.292,0.134
		c0.094,0.061,0.191,0.134,0.289,0.211c0.097,0.085,0.199,0.179,0.288,0.284c0.094,0.093,0.183,0.195,0.268,0.309
		c0.102,0.138,0.199,0.289,0.305,0.451c0.077,0.13,0.158,0.264,0.24,0.418c0.098,0.187,0.195,0.406,0.301,0.634
		c0.065,0.171,0.138,0.329,0.223,0.516c0.093,0.256,0.195,0.561,0.292,0.857c0.069,0.199,0.13,0.378,0.195,0.593
		c0.11,0.358,0.207,0.772,0.309,1.178c0.049,0.207,0.11,0.382,0.154,0.593c0.15,0.658,0.297,1.349,0.435,2.117l-1.954,104.218
		C600.661,362.67,602.469,382.252,592.17,390.747"/>
	<path class="st4" d="M289.569,537.889c0.325,0.975,0.386,1.792,0.183,2.466c-0.211,0.67-0.626,1.194-1.247,1.58
		c-0.849,0.52-1.727,0.622-2.637,0.325c-0.91-0.305-1.816-1.182-2.718-2.649c-0.841-1.389-1.182-2.555-1.036-3.502
		c0.158-0.951,0.678-1.682,1.536-2.21c0.622-0.386,1.259-0.54,1.909-0.455c0.65,0.093,1.227,0.39,1.735,0.898l1.979-1.97
		c-0.833-0.772-1.666-1.235-2.494-1.414c-1.406-0.297-2.815,0-4.233,0.861c-1.637,0.995-2.62,2.336-2.958,4.014
		c-0.35,1.682,0.069,3.482,1.255,5.432c1.117,1.816,2.498,2.958,4.136,3.404c1.641,0.447,3.234,0.203,4.774-0.76
		c1.243-0.743,2.088-1.678,2.523-2.799c0.435-1.109,0.435-2.405,0.008-3.892L289.569,537.889z"/>
	<polygon class="st4" points="297.717,536.442 296.002,533.175 302.059,529.986 300.991,527.959 294.934,531.14 293.532,528.459 
		300.052,525.05 298.976,523.007 290.03,527.683 296.339,539.765 305.529,534.951 304.46,532.927 	"/>
	<polygon class="st4" points="309.399,518.195 313.137,526.492 304.313,520.491 301.871,521.588 307.482,534.015 309.81,532.955 
		306.153,524.87 314.815,530.692 317.334,529.563 311.727,517.139 	"/>
	<polygon class="st4" points="324.911,514.414 324.074,512.265 313.983,516.194 314.82,518.347 318.594,516.88 322.693,527.431 
		325.261,526.44 321.153,515.873 	"/>
	<path class="st4" d="M343.671,506.056l-1.588,14.463l-2.344-1.946c-0.959-0.792-1.682-1.333-2.186-1.605
		c-0.492-0.276-1.085-0.483-1.751-0.626c1.081-0.54,1.8-1.223,2.157-2.039c0.366-0.817,0.39-1.71,0.069-2.69
		c-0.256-0.768-0.67-1.381-1.243-1.84c-0.569-0.479-1.207-0.727-1.914-0.756c-0.707-0.02-1.751,0.195-3.132,0.65l-5.493,1.812
		l4.27,12.939l2.616-0.861l-1.788-5.403l0.536-0.183c0.593-0.191,1.044-0.289,1.361-0.28c0.301,0.02,0.63,0.11,0.967,0.268
		c0.329,0.195,0.995,0.67,1.999,1.462l2.823,2.19l3.124-1.04l2.742-0.735l0.289-3.291l5.253-1.406l1.954,2.681l2.893-0.768
		l-8.804-11.749L343.671,506.056z M335.449,513.735c-0.098,0.309-0.276,0.569-0.553,0.784c-0.28,0.219-1.048,0.516-2.303,0.93
		l-1.926,0.642l-1.089-3.283l2.039-0.678c1.064-0.337,1.702-0.536,1.922-0.577c0.451-0.073,0.833-0.008,1.15,0.179
		c0.329,0.191,0.553,0.512,0.703,0.939C335.518,513.064,335.534,513.414,335.449,513.735 M345.402,514.129l0.471-5.375l3.12,4.4
		L345.402,514.129z"/>
	<polygon class="st4" points="358.817,513.983 356.485,503.005 353.791,503.582 356.599,516.802 365.983,514.807 365.508,512.561 	
		"/>
	<path class="st4" d="M382.45,506.272c-0.524-0.524-1.215-0.837-2.064-0.967c0.54-0.353,0.955-0.808,1.227-1.381
		c0.264-0.565,0.357-1.178,0.272-1.812c-0.077-0.585-0.284-1.097-0.626-1.515c-0.337-0.435-0.744-0.768-1.19-0.995
		c-0.451-0.228-0.951-0.353-1.483-0.362c-0.536-0.02-1.337,0.029-2.409,0.187l-5.395,0.723l1.816,13.5l4.595-0.609
		c1.743-0.248,2.836-0.435,3.283-0.548c0.711-0.163,1.296-0.471,1.735-0.878c0.447-0.414,0.78-0.934,0.987-1.552
		c0.203-0.622,0.264-1.235,0.187-1.853C383.279,507.446,382.966,506.792,382.45,506.272 M373.817,502.035l1.56-0.207
		c1.284-0.187,2.06-0.268,2.34-0.28c0.459,0,0.825,0.102,1.089,0.341c0.264,0.223,0.423,0.553,0.483,0.967
		c0.057,0.439-0.032,0.808-0.268,1.109c-0.228,0.305-0.565,0.508-1.032,0.638c-0.252,0.065-0.906,0.158-1.97,0.309l-1.792,0.236
		L373.817,502.035z M380.321,509.656c-0.215,0.321-0.52,0.557-0.922,0.687c-0.26,0.081-0.869,0.199-1.848,0.325l-2.531,0.349
		l-0.483-3.628l2.202-0.289c1.243-0.167,2.052-0.207,2.442-0.134c0.39,0.081,0.703,0.252,0.934,0.52
		c0.232,0.236,0.382,0.565,0.439,0.979C380.614,508.945,380.54,509.347,380.321,509.656"/>
	<path class="st4" d="M388.935,498.047l-4.29,13.975l2.917-0.224l0.898-3.165l5.424-0.402l1.414,3.002l2.986-0.236l-6.456-13.179
		L388.935,498.047z M389.126,506.282l1.458-5.184l2.247,4.908L389.126,506.282z"/>
	<polygon class="st4" points="407.621,497.254 407.751,506.35 402.043,497.323 399.37,497.367 399.561,510.989 402.112,510.945 
		401.986,502.072 407.605,510.88 410.367,510.847 410.176,497.213 	"/>
	<polygon class="st4" points="422.074,497.651 416.244,503.441 416.525,497.395 413.774,497.278 413.132,510.879 415.887,511.013 
		416.078,506.894 418.414,504.72 421.859,511.286 425.41,511.448 420.4,502.892 425.767,497.834 	"/>
	<path class="st4" d="M439.607,499.131c-1.101-0.15-2.096-0.098-2.986,0.138c-0.67,0.191-1.304,0.512-1.905,0.979
		c-0.605,0.492-1.109,1.052-1.503,1.702c-0.54,0.865-0.902,1.991-1.085,3.372c-0.289,2.149,0.081,3.908,1.101,5.294
		c1.024,1.393,2.539,2.214,4.55,2.478c1.974,0.268,3.644-0.134,4.997-1.202c1.353-1.073,2.169-2.714,2.462-4.887
		c0.297-2.19-0.077-3.989-1.101-5.383C443.108,500.224,441.597,499.395,439.607,499.131 M442.426,506.562
		c-0.207,1.576-0.715,2.702-1.511,3.384c-0.804,0.691-1.751,0.979-2.832,0.821c-1.097-0.15-1.938-0.662-2.539-1.536
		c-0.593-0.89-0.796-2.096-0.593-3.628c0.207-1.556,0.711-2.661,1.499-3.344c0.792-0.683,1.747-0.947,2.868-0.796
		c1.129,0.142,1.987,0.65,2.555,1.511C442.45,503.824,442.629,505.014,442.426,506.562"/>
	<polygon class="st4" points="446.253,514.116 448.947,514.641 450.044,508.953 455.634,510.029 456.069,507.775 450.487,506.686 
		451.096,503.525 457.568,504.772 458.002,502.505 448.829,500.742 	"/>
	<polygon class="st4" points="474.182,506.582 471.777,515.353 468.807,505.115 466.219,504.412 462.615,517.543 465.081,518.225 
		467.43,509.657 470.379,519.672 473.04,520.411 476.644,507.256 	"/>
	<polygon class="st4" points="479.7,508.263 475.585,521.243 478.205,522.072 482.325,509.084 	"/>
	<path class="st4" d="M489.046,518.089l-0.78,2.149l2.958,1.077l-0.589,1.625c-0.496,0.167-1.06,0.252-1.682,0.26
		c-0.622,0.02-1.207-0.073-1.751-0.268c-1.097-0.39-1.84-1.093-2.243-2.1c-0.394-1.003-0.317-2.263,0.232-3.786
		c0.512-1.406,1.223-2.36,2.161-2.824c0.922-0.487,1.954-0.508,3.079-0.106c0.744,0.272,1.308,0.687,1.666,1.223
		c0.366,0.544,0.528,1.166,0.479,1.857l2.746,0.459c0.175-1.272-0.073-2.401-0.719-3.392c-0.662-0.995-1.779-1.771-3.364-2.356
		c-1.227-0.439-2.324-0.597-3.307-0.471c-1.272,0.158-2.385,0.662-3.319,1.491c-0.93,0.833-1.637,1.926-2.125,3.246
		c-0.447,1.235-0.609,2.458-0.492,3.685c0.126,1.235,0.581,2.308,1.373,3.234c0.792,0.926,1.857,1.621,3.197,2.121
		c1.052,0.378,2.165,0.557,3.344,0.532c1.166-0.028,2.125-0.207,2.856-0.532l1.848-5.091L489.046,518.089z"/>
	<polygon class="st4" points="505.494,526.118 506.391,523.997 500.102,521.324 501.285,518.545 508.049,521.429 508.947,519.297 
		499.656,515.34 494.313,527.885 503.848,531.939 504.75,529.827 497.746,526.841 499.205,523.44 	"/>
	<path class="st4" d="M518.182,530.768c0.825-0.345,1.471-0.979,1.914-1.897c0.357-0.723,0.487-1.446,0.406-2.182
		c-0.081-0.739-0.366-1.361-0.849-1.877c-0.496-0.504-1.393-1.073-2.706-1.723l-5.208-2.527l-5.956,12.261l2.474,1.198l2.486-5.111
		l0.5,0.248c0.577,0.264,0.963,0.516,1.178,0.735c0.227,0.211,0.386,0.508,0.504,0.873c0.11,0.357,0.252,1.174,0.422,2.438
		l0.496,3.526l2.958,1.442l-0.333-3.116c-0.13-1.243-0.272-2.121-0.447-2.673c-0.162-0.544-0.439-1.105-0.821-1.662
		C516.353,531.085,517.341,531.097,518.182,530.768 M515.825,528.777c-0.341-0.045-1.113-0.353-2.295-0.926l-1.828-0.894
		l1.511-3.108l1.926,0.934c1.003,0.487,1.593,0.796,1.783,0.918c0.37,0.264,0.597,0.585,0.699,0.934
		c0.097,0.362,0.049,0.752-0.15,1.158c-0.179,0.362-0.414,0.63-0.703,0.8C516.483,528.753,516.162,528.822,515.825,528.777"/>
	<polygon class="st4" points="524.273,526.8 517.899,538.837 520.32,540.125 526.707,528.096 	"/>
	<path class="st4" d="M521.357,540.589l2.527,1.463l2.523-2.129l4.721,2.706l-0.516,3.274l2.6,1.503l2.052-14.54l-2.527-1.438
		L521.357,540.589z M531.506,540.199l-3.23-1.853l4.115-3.465L531.506,540.199z"/>
	<path class="st4" d="M41.204,666.64c-7.561,0-13.561-2.287-18.006-6.846c-4.449-4.591-6.675-10.997-6.675-19.289
		c0-7.987,2.226-14.357,6.687-19.111c4.457-4.753,10.469-7.126,18.026-7.126c2.011,0,3.815,0.114,5.419,0.329
		c1.605,0.232,3.14,0.54,4.611,0.955c1.146,0.329,2.397,0.804,3.75,1.385c1.357,0.589,2.454,1.097,3.283,1.532v12.005h-1.284
		c-0.605-0.528-1.373-1.186-2.304-1.938c-0.926-0.752-1.974-1.491-3.144-2.214c-1.182-0.731-2.47-1.349-3.88-1.844
		c-1.41-0.516-2.884-0.772-4.42-0.772c-1.824,0-3.502,0.297-5.021,0.87c-1.532,0.581-2.974,1.572-4.351,2.998
		c-1.268,1.284-2.299,3.019-3.1,5.216c-0.8,2.177-1.199,4.765-1.199,7.747c0,3.132,0.414,5.769,1.251,7.906
		c0.833,2.133,1.93,3.859,3.283,5.164c1.308,1.259,2.771,2.182,4.384,2.742c1.613,0.569,3.218,0.849,4.822,0.849
		c1.674,0,3.262-0.272,4.778-0.833c1.507-0.561,2.787-1.17,3.823-1.84c1.129-0.703,2.125-1.418,2.978-2.141
		c0.857-0.711,1.605-1.365,2.238-1.926h1.146v11.847c-0.918,0.439-1.995,0.918-3.218,1.471c-1.215,0.557-2.47,1.02-3.75,1.418
		c-1.58,0.463-3.063,0.825-4.44,1.077C45.514,666.518,43.621,666.64,41.204,666.64"/>
	<path class="st4" d="M84.538,666.671c-7.171,0-12.675-1.702-16.507-5.143c-3.819-3.433-5.732-8.316-5.732-14.658
		c0-6.204,1.779-11.164,5.35-14.869c3.563-3.693,8.552-5.542,14.963-5.542c5.822,0,10.201,1.56,13.134,4.688
		c2.933,3.149,4.4,7.642,4.4,13.476v4.274H74.183c0.114,1.767,0.484,3.238,1.117,4.416c0.63,1.19,1.467,2.137,2.503,2.828
		c1.016,0.699,2.202,1.207,3.555,1.511c1.353,0.301,2.832,0.455,4.436,0.455c1.377,0,2.734-0.154,4.059-0.455
		c1.337-0.305,2.551-0.711,3.66-1.199c0.967-0.426,1.865-0.894,2.694-1.389c0.821-0.5,1.495-0.943,2.015-1.324h1.251v9.791
		c-0.971,0.382-1.857,0.731-2.661,1.068c-0.8,0.325-1.897,0.654-3.299,0.987c-1.284,0.341-2.612,0.605-3.977,0.796
		C88.17,666.573,86.509,666.671,84.538,666.671 M88.467,641.759c-0.065-2.511-0.646-4.408-1.743-5.724
		c-1.097-1.3-2.767-1.966-5.025-1.966c-2.299,0-4.103,0.687-5.403,2.06c-1.3,1.389-2.011,3.262-2.149,5.631H88.467z"/>
	<path class="st4" d="M141.857,665.658h-11.916v-18.863c0-1.536-0.065-3.063-0.187-4.587c-0.122-1.515-0.358-2.633-0.691-3.36
		c-0.406-0.853-0.995-1.475-1.763-1.848c-0.768-0.374-1.792-0.561-3.079-0.561c-0.967,0-1.954,0.187-2.95,0.54
		c-0.987,0.37-2.052,0.939-3.177,1.739v26.939h-11.847v-38.022h11.847v4.205c1.942-1.645,3.831-2.937,5.667-3.864
		c1.836-0.922,3.876-1.385,6.114-1.385c3.88,0,6.85,1.219,8.901,3.673c2.056,2.45,3.08,6,3.08,10.64V665.658z"/>
	<path class="st4" d="M165.188,666.406c-4.831,0-8.345-0.995-10.547-2.986c-2.202-1.987-3.303-5.233-3.303-9.746v-17.782h-4.542
		v-8.255h4.542v-10.867h11.851v10.867h11.404v8.255h-11.404v13.48c0,1.333,0.008,2.49,0.037,3.494
		c0.02,0.987,0.199,1.877,0.54,2.673c0.313,0.784,0.873,1.414,1.674,1.873c0.796,0.463,1.966,0.691,3.506,0.691
		c0.634,0,1.462-0.118,2.482-0.402c1.032-0.268,1.747-0.516,2.153-0.748h1.012v8.377c-1.28,0.329-2.645,0.597-4.095,0.784
		C169.056,666.313,167.289,666.406,165.188,666.406"/>
	<path class="st4" d="M204.968,638.855h-0.983c-0.455-0.175-1.105-0.288-1.966-0.362c-0.857-0.085-1.8-0.126-2.84-0.126
		c-1.239,0-2.547,0.187-3.912,0.544c-1.365,0.362-2.694,0.788-3.977,1.288v25.46h-11.847v-38.022h11.847v5.452
		c0.544-0.496,1.292-1.125,2.251-1.889c0.959-0.756,1.832-1.353,2.624-1.796c0.857-0.524,1.853-0.971,2.994-1.345
		s2.218-0.561,3.234-0.561c0.386,0,0.817,0.008,1.284,0.028c0.475,0.033,0.91,0.069,1.292,0.11V638.855z"/>
	<path class="st4" d="M230.461,661.637c-0.817,0.666-1.54,1.276-2.182,1.82c-0.646,0.532-1.515,1.085-2.596,1.617
		c-1.056,0.532-2.092,0.926-3.092,1.194c-1.008,0.264-2.409,0.406-4.217,0.406c-3.364,0-6.159-1.134-8.381-3.388
		c-2.222-2.255-3.335-5.099-3.335-8.536c0-2.811,0.569-5.099,1.694-6.837c1.129-1.727,2.759-3.116,4.875-4.128
		c2.145-1.036,4.704-1.759,7.686-2.165c2.982-0.406,6.183-0.723,9.608-0.946v-0.199c0-2.109-0.768-3.547-2.312-4.355
		c-1.544-0.813-3.868-1.198-6.963-1.198c-1.394,0-3.031,0.248-4.908,0.752c-1.869,0.52-3.701,1.162-5.485,1.958h-1.012v-9.181
		c1.17-0.337,3.067-0.739,5.684-1.198c2.62-0.467,5.261-0.691,7.922-0.691c6.545,0,11.314,1.085,14.309,3.262
		c2.986,2.178,4.481,5.501,4.481,9.97v25.867h-11.777V661.637z M230.461,655.734v-7.918c-2.011,0.203-3.636,0.374-4.875,0.536
		c-1.243,0.134-2.462,0.431-3.656,0.853c-1.036,0.349-1.849,0.91-2.421,1.637c-0.573,0.735-0.861,1.706-0.861,2.925
		c0,1.792,0.475,3.014,1.434,3.685c0.959,0.658,2.377,0.987,4.254,0.987c1.036,0,2.096-0.219,3.177-0.711
		C228.601,657.27,229.584,656.587,230.461,655.734"/>
	<rect x="251.013" y="612.972" class="st4" width="11.847" height="52.684"/>
	<path class="st4" d="M333.246,650.223c0,2.498-0.475,4.704-1.422,6.602c-0.947,1.893-2.222,3.461-3.827,4.704
		c-1.893,1.487-3.981,2.555-6.244,3.177c-2.271,0.634-5.155,0.951-8.649,0.951h-20.183v-50.405h17.811
		c3.701,0,6.504,0.13,8.414,0.422c1.901,0.284,3.697,0.869,5.367,1.771c1.804,0.971,3.153,2.275,4.042,3.896
		c0.898,1.629,1.345,3.506,1.345,5.623c0,2.458-0.622,4.644-1.848,6.565c-1.235,1.917-2.929,3.335-5.091,4.233v0.276
		c3.108,0.642,5.598,1.987,7.479,4.01C332.312,644.06,333.246,646.786,333.246,650.223 M317.032,629.499
		c0-0.813-0.211-1.645-0.63-2.503c-0.418-0.861-1.068-1.479-1.946-1.869c-0.837-0.358-1.824-0.557-2.962-0.589
		c-1.142-0.037-2.84-0.049-5.099-0.049h-0.882v10.656h1.593c2.165,0,3.685-0.02,4.558-0.061c0.869-0.041,1.763-0.276,2.69-0.715
		c1.016-0.463,1.719-1.121,2.096-1.958C316.837,631.575,317.032,630.608,317.032,629.499 M320.209,649.979
		c0-1.556-0.313-2.767-0.947-3.648c-0.63-0.873-1.58-1.556-2.844-1.999c-0.768-0.301-1.824-0.463-3.161-0.496
		c-1.345-0.032-3.153-0.037-5.403-0.037h-2.34v12.619h0.683c3.287,0,5.574-0.02,6.837-0.069c1.264-0.045,2.551-0.358,3.855-0.91
		c1.154-0.496,1.999-1.227,2.531-2.194C319.945,652.294,320.209,651.202,320.209,649.979"/>
	<path class="st4" d="M360.773,661.637c-0.817,0.666-1.544,1.276-2.182,1.82c-0.65,0.532-1.515,1.085-2.6,1.617
		c-1.052,0.532-2.088,0.926-3.092,1.194c-1.004,0.264-2.405,0.406-4.213,0.406c-3.368,0-6.159-1.134-8.385-3.388
		c-2.222-2.255-3.331-5.099-3.331-8.536c0-2.811,0.565-5.099,1.694-6.837c1.125-1.727,2.754-3.116,4.875-4.128
		c2.141-1.036,4.7-1.759,7.686-2.165c2.982-0.406,6.179-0.723,9.608-0.946v-0.199c0-2.109-0.772-3.547-2.312-4.355
		c-1.548-0.813-3.868-1.198-6.963-1.198c-1.398,0-3.031,0.248-4.912,0.752c-1.873,0.52-3.693,1.162-5.48,1.958h-1.016v-9.181
		c1.174-0.337,3.067-0.739,5.688-1.198c2.616-0.467,5.261-0.691,7.926-0.691c6.549,0,11.31,1.085,14.3,3.262
		c2.986,2.178,4.489,5.501,4.489,9.97v25.867h-11.782V661.637z M360.773,655.734v-7.918c-2.015,0.203-3.636,0.374-4.875,0.536
		c-1.243,0.134-2.462,0.431-3.66,0.853c-1.036,0.349-1.84,0.91-2.417,1.637c-0.573,0.735-0.861,1.706-0.861,2.925
		c0,1.792,0.475,3.014,1.438,3.685c0.955,0.658,2.373,0.987,4.254,0.987c1.032,0,2.092-0.219,3.173-0.711
		C358.913,657.27,359.892,656.587,360.773,655.734"/>
	<path class="st4" d="M416.936,665.658h-11.912v-18.863c0-1.536-0.069-3.063-0.195-4.587c-0.122-1.515-0.349-2.633-0.691-3.36
		c-0.406-0.853-0.987-1.475-1.759-1.848c-0.772-0.374-1.796-0.561-3.084-0.561c-0.967,0-1.95,0.187-2.95,0.54
		c-0.983,0.37-2.048,0.939-3.177,1.739v26.939h-11.851v-38.022h11.851v4.205c1.942-1.645,3.835-2.937,5.671-3.864
		c1.836-0.922,3.872-1.385,6.11-1.385c3.88,0,6.85,1.219,8.901,3.673c2.06,2.45,3.084,6,3.084,10.64V665.658z"/>
	<polygon class="st4" points="463.759,665.658 449.678,665.658 439.383,649.103 437.555,651.573 437.555,665.658 425.704,665.658 
		425.704,612.974 437.555,612.974 437.555,642.505 448.796,627.636 462.78,627.636 449.47,644.025 	"/>
	<path class="st4" d="M524.295,646.662c0,6.256-1.71,11.184-5.127,14.78c-3.425,3.599-8.255,5.395-14.512,5.395
		c-6.208,0-11.03-1.796-14.467-5.395c-3.445-3.595-5.172-8.523-5.172-14.78c0-6.313,1.727-11.266,5.172-14.833
		c3.437-3.587,8.259-5.375,14.467-5.375c6.228,0,11.059,1.788,14.491,5.403C522.581,635.457,524.295,640.389,524.295,646.662
		 M512.144,646.735c0-2.259-0.187-4.136-0.561-5.643c-0.374-1.495-0.882-2.693-1.548-3.612c-0.691-0.938-1.491-1.601-2.369-1.97
		c-0.878-0.37-1.877-0.561-3.01-0.561c-1.06,0-2.023,0.171-2.876,0.496c-0.857,0.321-1.645,0.951-2.368,1.877
		c-0.682,0.873-1.223,2.088-1.625,3.62c-0.41,1.544-0.605,3.461-0.605,5.793c0,2.316,0.187,4.201,0.569,5.639
		c0.382,1.438,0.886,2.576,1.491,3.433c0.63,0.878,1.422,1.52,2.369,1.922c0.947,0.406,1.999,0.617,3.149,0.617
		c0.947,0,1.914-0.211,2.897-0.617c0.979-0.402,1.767-1.008,2.356-1.828c0.695-0.959,1.227-2.133,1.589-3.494
		C511.957,651.037,512.144,649.148,512.144,646.735"/>
	<path class="st4" d="M554.902,621.91h-0.914c-0.455-0.13-1.158-0.309-2.113-0.528c-0.967-0.207-1.877-0.305-2.73-0.305
		c-2.397,0-4.03,0.435-4.891,1.308c-0.87,0.894-1.304,2.539-1.304,4.952v0.297h9.413v8.259h-9.007v29.763h-11.851v-29.763h-4.737
		v-8.259h4.737v-1.044c0-4.648,1.215-8.141,3.656-10.461c2.438-2.328,6.13-3.482,11.071-3.482c1.718,0,3.319,0.057,4.806,0.171
		c1.495,0.138,2.783,0.301,3.864,0.5V621.91z"/>
	<polygon class="st4" points="621.296,665.658 609.108,665.658 589.665,630.508 589.665,665.658 578.094,665.658 578.094,615.253 
		593.63,615.253 609.714,644.118 609.714,615.253 621.296,615.253 	"/>
	<path class="st4" d="M643.032,622.227h-12.525v-9.251h12.525V622.227z M642.69,665.656h-11.847v-38.022h11.847V665.656z"/>
	<path class="st4" d="M686.33,661.291c0,3.518-0.512,6.521-1.523,8.966c-1.016,2.47-2.409,4.376-4.164,5.761
		c-1.763,1.402-3.872,2.405-6.326,3.027c-2.466,0.622-5.196,0.934-8.206,0.934c-2.519,0-4.92-0.167-7.187-0.488
		c-2.271-0.333-4.237-0.707-5.907-1.142v-9.507h1.389c0.581,0.232,1.28,0.467,2.076,0.744c0.808,0.268,1.617,0.52,2.421,0.743
		c0.975,0.248,1.918,0.447,2.852,0.609c0.914,0.158,1.869,0.232,2.84,0.232c2.007,0,3.685-0.211,5.03-0.622
		c1.341-0.418,2.348-1.012,3.022-1.783c0.683-0.78,1.154-1.714,1.422-2.791c0.272-1.06,0.41-2.409,0.41-4.046v-0.711
		c-1.333,1.182-2.864,2.121-4.623,2.832c-1.747,0.707-3.543,1.068-5.395,1.068c-4.92,0-8.722-1.601-11.392-4.81
		c-2.673-3.201-4.018-8.081-4.018-14.625c0-2.986,0.41-5.655,1.239-8.02c0.829-2.373,1.97-4.388,3.437-6.066
		c1.402-1.593,3.092-2.836,5.078-3.705c1.987-0.865,4.05-1.312,6.195-1.312c1.938,0,3.681,0.256,5.212,0.76
		c1.536,0.487,2.933,1.154,4.193,1.991l0.447-1.694h11.477V661.291z M674.479,653.673V636.44c-0.589-0.268-1.308-0.496-2.165-0.674
		c-0.861-0.183-1.719-0.276-2.576-0.276c-2.848,0-4.977,0.918-6.419,2.763c-1.43,1.84-2.145,4.412-2.145,7.707
		c0,1.645,0.11,3.039,0.317,4.18c0.219,1.138,0.613,2.157,1.207,3.031c0.565,0.853,1.3,1.503,2.222,1.942
		c0.906,0.435,2.076,0.666,3.498,0.666c1.056,0,2.104-0.179,3.128-0.548C672.582,654.864,673.557,654.344,674.479,653.673"/>
	<path class="st4" d="M714.869,666.671c-7.175,0-12.671-1.702-16.506-5.143c-3.823-3.433-5.732-8.316-5.732-14.658
		c0-6.204,1.775-11.164,5.354-14.869c3.555-3.693,8.548-5.542,14.959-5.542c5.822,0,10.197,1.56,13.13,4.688
		c2.941,3.149,4.412,7.642,4.412,13.476v4.274h-25.976c0.118,1.767,0.491,3.238,1.117,4.416c0.638,1.19,1.466,2.137,2.507,2.828
		c1.016,0.699,2.202,1.207,3.555,1.511c1.353,0.301,2.831,0.455,4.436,0.455c1.373,0,2.73-0.154,4.058-0.455
		c1.333-0.305,2.559-0.711,3.665-1.199c0.967-0.426,1.869-0.894,2.689-1.389c0.821-0.5,1.495-0.943,2.011-1.324h1.251v9.791
		c-0.967,0.382-1.848,0.731-2.657,1.068c-0.8,0.325-1.897,0.654-3.295,0.987c-1.288,0.341-2.616,0.605-3.986,0.796
		C718.505,666.573,716.835,666.671,714.869,666.671 M718.798,641.759c-0.073-2.511-0.646-4.408-1.743-5.724
		c-1.097-1.3-2.775-1.966-5.025-1.966c-2.3,0-4.103,0.687-5.403,2.06c-1.3,1.389-2.011,3.262-2.153,5.631H718.798z"/>
	<path class="st4" d="M762.101,638.855h-0.983c-0.455-0.175-1.105-0.288-1.966-0.362c-0.849-0.085-1.8-0.126-2.844-0.126
		c-1.235,0-2.543,0.187-3.912,0.544c-1.361,0.362-2.689,0.788-3.977,1.288v25.46h-11.847v-38.022h11.847v5.452
		c0.544-0.496,1.292-1.125,2.255-1.889c0.959-0.756,1.84-1.353,2.624-1.796c0.861-0.524,1.853-0.971,2.994-1.345
		c1.138-0.374,2.218-0.561,3.234-0.561c0.386,0,0.817,0.008,1.288,0.028c0.471,0.033,0.898,0.069,1.288,0.11V638.855z"/>
	<path class="st4" d="M778.833,622.227h-12.529v-9.251h12.529V622.227z M778.483,665.656h-11.851v-38.022h11.851V665.656z"/>
	<path class="st4" d="M808.519,661.637c-0.817,0.666-1.544,1.276-2.182,1.82c-0.65,0.532-1.507,1.085-2.592,1.617
		c-1.06,0.532-2.096,0.926-3.1,1.194c-1.003,0.264-2.405,0.406-4.213,0.406c-3.364,0-6.159-1.134-8.385-3.388
		c-2.223-2.255-3.327-5.099-3.327-8.536c0-2.811,0.565-5.099,1.69-6.837c1.117-1.727,2.75-3.116,4.875-4.128
		c2.141-1.036,4.704-1.759,7.686-2.165c2.978-0.406,6.183-0.723,9.612-0.946v-0.199c0-2.109-0.772-3.547-2.32-4.355
		c-1.548-0.813-3.863-1.198-6.959-1.198c-1.402,0-3.027,0.248-4.916,0.752c-1.869,0.52-3.697,1.162-5.477,1.958h-1.02v-9.181
		c1.178-0.337,3.075-0.739,5.692-1.198c2.62-0.467,5.257-0.691,7.926-0.691c6.545,0,11.315,1.085,14.304,3.262
		c2.99,2.178,4.485,5.501,4.485,9.97v25.867h-11.781V661.637z M808.519,655.734v-7.918c-2.011,0.203-3.632,0.374-4.875,0.536
		c-1.243,0.134-2.462,0.431-3.656,0.853c-1.036,0.349-1.844,0.91-2.421,1.637c-0.573,0.735-0.865,1.706-0.865,2.925
		c0,1.792,0.48,3.014,1.442,3.685c0.959,0.658,2.372,0.987,4.249,0.987c1.036,0,2.097-0.219,3.177-0.711
		C806.658,657.27,807.633,656.587,808.519,655.734"/>
</g>
</svg>
